<svg id="visual" viewBox="0 0 2000 700" width="2000" height="700" xmlns="http://www.w3.org/2000/svg" xmlns:xlink="http://www.w3.org/1999/xlink" version="1.1"><path d="M0 198L47.7 202.3C95.3 206.7 190.7 215.3 285.8 211.3C381 207.3 476 190.7 571.2 186.7C666.3 182.7 761.7 191.3 857 205.7C952.3 220 1047.7 240 1143 254.2C1238.3 268.3 1333.7 276.7 1428.8 266.2C1524 255.7 1619 226.3 1714.2 221.2C1809.3 216 1904.7 235 1952.3 244.5L2000 254L2000 0L1952.3 0C1904.7 0 1809.3 0 1714.2 0C1619 0 1524 0 1428.8 0C1333.7 0 1238.3 0 1143 0C1047.7 0 952.3 0 857 0C761.7 0 666.3 0 571.2 0C476 0 381 0 285.8 0C190.7 0 95.3 0 47.7 0L0 0Z" fill="#ff0066"></path><path d="M0 157L47.7 160.5C95.3 164 190.7 171 285.8 173.3C381 175.7 476 173.3 571.2 174.2C666.3 175 761.7 179 857 174.2C952.3 169.3 1047.7 155.7 1143 148.2C1238.3 140.7 1333.7 139.3 1428.8 154.3C1524 169.3 1619 200.7 1714.2 206.8C1809.3 213 1904.7 194 1952.3 184.5L2000 175L2000 0L1952.3 0C1904.7 0 1809.3 0 1714.2 0C1619 0 1524 0 1428.8 0C1333.7 0 1238.3 0 1143 0C1047.7 0 952.3 0 857 0C761.7 0 666.3 0 571.2 0C476 0 381 0 285.8 0C190.7 0 95.3 0 47.7 0L0 0Z" fill="#ff5e7e"></path><path d="M0 107L47.7 106.5C95.3 106 190.7 105 285.8 118.3C381 131.7 476 159.3 571.2 171.5C666.3 183.7 761.7 180.3 857 171.2C952.3 162 1047.7 147 1143 136.2C1238.3 125.3 1333.7 118.7 1428.8 126.8C1524 135 1619 158 1714.2 159C1809.3 160 1904.7 139 1952.3 128.5L2000 118L2000 0L1952.3 0C1904.7 0 1809.3 0 1714.2 0C1619 0 1524 0 1428.8 0C1333.7 0 1238.3 0 1143 0C1047.7 0 952.3 0 857 0C761.7 0 666.3 0 571.2 0C476 0 381 0 285.8 0C190.7 0 95.3 0 47.7 0L0 0Z" fill="#ff8b99"></path><path d="M0 126L47.7 125.7C95.3 125.3 190.7 124.7 285.8 117C381 109.3 476 94.7 571.2 95.8C666.3 97 761.7 114 857 120.3C952.3 126.7 1047.7 122.3 1143 119.2C1238.3 116 1333.7 114 1428.8 113C1524 112 1619 112 1714.2 111.3C1809.3 110.7 1904.7 109.3 1952.3 108.7L2000 108L2000 0L1952.3 0C1904.7 0 1809.3 0 1714.2 0C1619 0 1524 0 1428.8 0C1333.7 0 1238.3 0 1143 0C1047.7 0 952.3 0 857 0C761.7 0 666.3 0 571.2 0C476 0 381 0 285.8 0C190.7 0 95.3 0 47.7 0L0 0Z" fill="#ffb2b7"></path><path d="M0 44L47.7 48.2C95.3 52.3 190.7 60.7 285.8 64.3C381 68 476 67 571.2 60.7C666.3 54.3 761.7 42.7 857 43C952.3 43.3 1047.7 55.7 1143 63.2C1238.3 70.7 1333.7 73.3 1428.8 74.5C1524 75.7 1619 75.3 1714.2 73.2C1809.3 71 1904.7 67 1952.3 65L2000 63L2000 0L1952.3 0C1904.7 0 1809.3 0 1714.2 0C1619 0 1524 0 1428.8 0C1333.7 0 1238.3 0 1143 0C1047.7 0 952.3 0 857 0C761.7 0 666.3 0 571.2 0C476 0 381 0 285.8 0C190.7 0 95.3 0 47.7 0L0 0Z" fill="#ffd8d8"></path></svg>